<?xml version="1.0" encoding="utf-8"?>
<!-- Generator: Adobe Illustrator 20.0.0, SVG Export Plug-In . SVG Version: 6.00 Build 0)  -->
<!DOCTYPE svg PUBLIC "-//W3C//DTD SVG 1.1//EN" "http://www.w3.org/Graphics/SVG/1.1/DTD/svg11.dtd">
<svg version="1.1" id="圖層_1" xmlns="http://www.w3.org/2000/svg" xmlns:xlink="http://www.w3.org/1999/xlink" x="0px" y="0px"
	 viewBox="0 0 1121 366" style="enable-background:new 0 0 1121 366;" xml:space="preserve">
<style type="text/css">
	.st0{fill:#FFFFFF;}
</style>
<g>
	<path class="st0" d="M182.8,1.2C81.9,1.2,0.2,83,0.2,183.8c0,100.9,81.8,182.6,182.6,182.6c100.9,0,182.6-81.8,182.6-182.6
		C365.4,83,283.7,1.2,182.8,1.2z M286.3,43.9c5.6,4.2,16.1,13.6,16.1,13.6c-8.8-2.2-17.7-1.2-25.6,3.2c-6.4,3.5-10,9.8-15.7,14
		c-4.3-3.1-8.7-5.9-13.3-8.4c8-1.2,15.5-5.2,21.5-10.4c5.2-4.4,8.2-10,11.3-16C282.5,41.2,284.4,42.5,286.3,43.9
		C287.8,45.1,284.4,42.5,286.3,43.9z M94.7,92.1c3.6,1.8,9.9,4.7,20,9.3c14.2,6.3,21.2,9,23.8,10c-16,5.9-24.7,15.3-27.6,30.2
		c17.7-20.5,24.1-15.5,24.1-5.6c-2.1,18.4,9.6,32.8,48.9,50.8l43.2,20.7c18.4,9.4,36.7,20.4,32.3,40.8
		c-4.2,19.2-34.7,29.1-50.6,35.8c-12.7-13.2-26.5-24.8-43.1-32.6l-4.9-2.2c-6-2.6-12.5-5-18.8-6.3c-17.6-3.8-39.5-3-59.1,2.5
		c10.1-0.5,20.5,0.3,30.8,2.6c29.5,6.4,54.1,23.3,71.4,46.2c3.4,7.6-7,12-7,12c5.7,1.8,11.5-0.9,12.2-4.7c0.4-2.2,1.6-3.7,2.6-4.5
		c11.7-8.5,68.2-21.3,79.4-50c0.4,9.3-2.2,17.5-7.4,25.6c32.7-27,8-63.1,8-63.1s0,0,0,0c-4.4-8-13.8-15.5-31.9-23.1l-11.8-5
		c4.8-2.6,16.3-2.7,21.5-10.8c-24.9,8.1-61.6-7-66.1-9c-19.3-10.1-37.3-23.7-34.7-35.7c3.4-15.7,21.3-16.9,35.3-13.9
		c4.5,1,8.3,2.3,11.6,4l0.1,0.5c-5.6,2.3-17.1,6.1-24.1,2.9c7,9,25.6,4.7,25.4,19.7c2.2,1.3,5.6-0.6,8.5-2.9
		c1.7,2.8,2.9,6.1,3.1,9.6c0.4,7.8,24.8-2.4,35.6-1.5c3,0.3,15.6,5.3,16.3,14c11.1-0.7,6.3-19.8,6.3-19.8s-15.8-4.4-19.4-12.8
		c-8.3-4.1-11.5-9.7-14.4-15.1c0.1-0.1,0.3-0.2,0.4-0.3c1.4-0.8,2.8-1.2,4.2-1.3c1.3-0.1,2.2,0.3,2.6,0.9c0.4,0.7,0.7,1.4,1,2.2
		c0.3,0.8,0.7,1.5,1.3,2.2c0.6,0.7,1.7,1,3.4,0.9c2.3-0.1,3.9-0.8,4.6-2c0.7-1.3,1.1-2.6,1-4.1c-0.1-1.3-0.5-2.4-1.2-3.2
		c-0.7-0.8-1.6-1.4-2.6-1.8c-1.1-0.4-2.2-0.7-3.4-0.8c-1.2-0.1-2.3-0.2-3.3-0.1c-2.9,0.1-5.4,0.8-7.7,2.1c-0.9,0.5-1.7,1.1-2.5,1.6
		c-2.8-4.7-6.3-8.7-14-10.9c-7.6-2.1-15.8-15.3-23.1-20.9c-9.4-7.3-17.6-11.9-27-17.1c-1.4-0.5-3.2,0.3-1.9,1.5
		c6.8,6.6,13.9,13.1,18.7,21.2c2.4,4,5.3,7.3,7.2,11.2l0.8,4.2c-5.3,3-12.3-14.7-26-11.7c9.2,3.8,11.6,12.7,7.9,14.1
		c-20-4.2-41.5-9-58.7-17.8c9.1,10.2,24,17.5,33.3,21.3c-4.8-0.4-10.5-0.9-18.4-3.3c-19.7-4.3-30-6.6-35.3-7.8
		c22.8-21.4,53.4-34.5,87.2-34.5c70.3,0,127.3,57,127.3,127.3c0,70.3-57,127.3-127.3,127.3c-70.3,0-127.3-57-127.3-127.3
		C55.5,147.8,70.6,115.2,94.7,92.1z M225.9,121.7c6.1,0.7,10.6,3,13.5,7.2C231.3,130.4,229.5,125.1,225.9,121.7z M271.6,34.2
		c-8,9.5-21.2,15.1-33.6,14.4c-4.8-0.3-9.5-1.4-14.2-1.6c-6.7-0.3-13.3,1.4-19.3,4.3c-0.3,0-0.5-0.1-0.8-0.2c2-6,1.4-11.9,1.8-18.1
		c0.4-7.5,3.5-14.4,8-20.4C213.5,12.6,236.9,16.6,271.6,34.2z M205.4,11.3L205.4,11.3c-12.4,15-4,23.2-16.6,38.3
		c-4.9-0.2-9.9-0.2-14.8,0.2c-1.9-8.4-1.8-15.9,1.7-24c2.9-6.9,8.2-10.7,13.3-15.8C191.8,10.1,202.8,11,205.4,11.3z M154.7,12.1
		c0,0,14.1-2.8,29.9-2.2c-7.6,4.6-13.3,9.6-17,17.9c-3.4,7.7-1.8,14.9-2.4,22.9c-3.8,0.5-7.6,1.2-11.3,2c3.7-6.9,5.6-15.3,5.1-23.1
		C158.7,23.4,156.3,17.9,154.7,12.1z M144.9,14C145,14,145,14,144.9,14c1.7,12.1-1.6,24.7-9.7,34c-6.6,7.6-15.9,11.6-21.2,20.4
		c-4.4,2.7-8.7,5.5-12.8,8.7c-1.7-7.1-5-12.8-10-18c-4.7-4.8-8.8-9.3-11.1-15.7C80.1,43.3,111.6,20.9,144.9,14z M73.4,48.5
		c2.3,6.2,7,10.9,9.9,16.8c3.8,7.6,4.7,17.3,2.6,25.5c-1.2,1.2-2.4,2.5-3.5,3.8c-4.6-4.2-10.5-6.6-14.8-11.2
		c-5.3-5.7-8.8-13.6-9.1-21.4C60.5,59.3,67.7,52.3,73.4,48.5z M53.7,67.1C53.7,67.1,53.8,67.1,53.7,67.1C54,75,57.1,83.2,62.6,89
		c4.5,4.8,9.6,8.4,12.5,14.6c-4,5.3-7.6,11-10.7,16.9c-0.2-7.6-1.3-14.6-5-21.4c-4.1-7.5-9.7-13.4-17.3-17.4
		C45.3,76.7,51.6,69.5,53.7,67.1z M35.3,91.5c8.1,8.8,12,21.4,10.6,33.1c-0.5,4.6-1.5,9.1-1.4,13.7c0.1,6.3,2.1,12.4,4.9,18
		c-5.7-2.1-11.5-1.8-17.5-2c-7.1-0.2-13.4-2.5-19.4-6.3C17.5,124.8,28.3,102.6,35.3,91.5z M9.9,164.2L9.9,164.2
		c0.3-2.8,0.7-5.5,1.1-8.2c5.7,4.2,11.9,5.6,18.7,6.9c7.4,1.4,13.6,4.6,19.2,9.7c-0.4,4.3-0.5,8.6-0.5,12.9
		c-8,1.7-14.9,2.4-22.8-0.5c-7.1-2.5-11.7-7-16.6-12.5C9.2,172.5,9.6,167,9.9,164.2z M8.9,177.7c4.4,7.3,10.7,12.5,18.7,15.3
		c7.1,2.5,14,0.9,21.3,1.6c0.3,3.8,0.8,7.6,1.4,11.3c-6.8-3.7-15.2-5.6-23-5.2c-6,0.3-11.5,2.6-17.2,4.2c0,0-1.2-6.2-1.5-13.1
		C8.3,186.9,8.8,181.5,8.9,177.7z M15.7,232.5c-1.8-5.7-3.1-11.8-4.1-17.7c11.4-1.6,23,1.4,32.3,8.4c7.4,5.6,11.2,14.4,18.5,20.1
		c2.8,5.6,5.9,10.9,9.3,16c-17.1,5.3-15.7,16.2-33.5,21.2C38.1,280.5,23.6,257.4,15.7,232.5z M42.9,287.4c6.4-1.6,11.2-5.6,16.7-9
		c6.8-4.3,14.7-5.9,22.6-5.4c2.3,2.6,4.8,5.2,7.3,7.6c-3.9,5.6-7,11.1-12.9,14.9c-7,4.5-14.3,6.2-22.5,5.6
		C50.2,296.7,46.5,292.1,42.9,287.4z M58.4,305.5c8.2,1.5,17.3-0.6,24.2-5.1c5.5-3.6,8.9-9.4,14.3-13.2c3.8,3.2,7.9,6.2,12.1,8.9
		c-7.9,1.3-15.3,5.3-21.2,10.5c-4.9,4.3-10.8,15.3-10.9,15.3C66.7,314,64.2,311.4,58.4,305.5z M85.6,328.2
		c7.2-8.9,19.7-14.7,31.4-14.7c4.5,0,9,1,13.5,1.5c5.6,0.6,11.1,0.1,16.5-1.7c1.9,0.5,3.8,1,5.7,1.4c-1.2,5.8-0.3,11.7-1.1,17.6
		c-1.1,7.6-5,15-10.3,20.5C139,352.3,109,342.7,85.6,328.2z M148.7,354.5c5.4-5.3,9.3-11.7,10.9-19.2c1.4-6.4,2.2-12.6,5.8-18.3
		c6.4,0.8,12.7,1.2,19.1,1.1c1.3,8.5-1.3,17.8-6.4,24.7c-4,5.3-9.9,8.6-13.6,14.1C164.3,356.9,153.7,355.5,148.7,354.5z
		 M196.3,357.3c-9.9,0.8-19.8,0.7-29.7-0.2c5.6-5.4,13.2-7.8,18.1-14c5.9-7.5,8-15.9,7.6-25.2c2.8-0.2,5.5-0.5,8.2-0.8
		c-2.2,7.3-2.9,15-1.1,22.4c1.4,5.7,3.9,11.2,4.6,17.1C201.4,356.8,198.9,357.1,196.3,357.3C195.2,357.4,198.9,357.1,196.3,357.3z
		 M231,351c-5.4,1.7-14.6,3.5-17.6,4.1c0,0,0,0,0,0c-0.7-7.1-2.2-13.8-0.8-21c1.7-8.5,5.9-16.8,12.3-22.7c12.4-4.1,24-9.9,34.5-17.2
		c2.9,5.5,7.5,9.2,11.5,13.8c5,5.7,7.7,13,8.6,20.5C279.5,328.5,261.2,342.2,231,351z M292.8,318.7c-1.3,1.1-4.6,3.7-6.7,5.3
		c0,0,0,0,0,0c-1.5-20-13.2-20-15.3-38.6c4.3-3.7,8.4-7.7,12.2-12c7.2,4.6,12.2,11.4,14.6,19.7c2.1,7,0.2,13.8,0.8,20.8
		C298.4,313.8,294.1,317.6,292.8,318.7z M318.8,292.3C318.8,292.3,318.8,292.3,318.8,292.3c-1.8,2.3-3.7,4.5-5.6,6.6
		c-4.1,4.4-8.1,8.7-12.5,12.8c0.5-3.6,1.8-7.2,2.4-10.8c0.8-4.8,0.3-9.6-1-14.2c-1.3-4.4-3.2-8.6-6.2-12.2c-2.3-2.7-5.1-5-7.7-7.5
		c2.5-3.2,4.9-6.5,7.1-9.9c2.7,7.4,7.4,14.4,13.6,19.3c4.6,3.7,10.2,5.7,15.2,8.7C322.4,287.7,320.7,290,318.8,292.3
		C318.8,292.3,320.7,290,318.8,292.3z M352.8,221.1c-3.9,17.7-10.4,34.4-19.2,49.6c-1.4,2-2.6,4.4-3.9,6.5c0,0,0,0,0,0
		c-9.5-7-16-16.6-18-28.5c-1.7-9.9,2.3-19.6,0.8-29.5c1-3.8,1.9-7.8,2.6-11.7c5.9,0.7,11.9-0.2,17.7,1.2
		C340.3,210.6,347.8,215.1,352.8,221.1L352.8,221.1z M355.5,205.1L355.5,205.1c-0.3,2.9-0.8,5.7-1.2,8.5c-5-6.1-11.8-10.9-19.5-12.8
		c-6.2-1.6-12.4-2-18.2-5.1c0.6-6.8,0.7-13.6,0.2-20.5c8.5-1,17.9,1.9,24.5,7.3c5.3,4.4,8.8,10.5,15,14
		C356.3,196.5,355.8,202.3,355.5,205.1z M356.8,183.8c0,3.7-0.2,7.5-0.4,11.2c-6.1-5.3-8.5-13.3-14.5-18.7
		c-7.2-6.5-16.3-9.2-25.8-8.7c-0.3-2.7-0.7-5.5-1.2-8.2c7.3,2.1,14.9,2.8,22.3,0.9c5.8-1.5,11.3-4,17.3-4.6
		C356,164.9,356.8,174.3,356.8,183.8z M352.8,146.4c-7.8,0.8-15,2.3-22.8,0.3c-8.9-2.3-17.1-7-22.9-14.2
		c-4.6-11.1-10.7-21.5-18-30.9c6.1-2.5,10.3-6.9,14.9-11.3c5.4-5.1,11.7-8.2,19-9.6C337.2,100,347.5,122.3,352.8,146.4z M299.5,82.7
		c-6.3,4.6-13.4,6.5-21.3,6.7c-3.1-3.1-6.3-6.1-9.7-8.9c4.4-6.6,8.5-12.1,15.8-15.8c7.3-3.7,14.1-3.7,22.1-3.3
		c4,4,7.9,8.3,11.5,12.8C317.9,74.1,309.4,75.5,299.5,82.7z"/>
	<path class="st0" d="M107.9,179.7c3.1,15.1,14.5,28.8,37.7,37.2c33.2,11.9,37.9,6.2,63.8,13.5c26,7.3,22.4,20.6,21.3,27.8
		c-0.6,3.7-6.1,11.9-18.7,12.2c0,0,5.5,2.9,15.7-0.9c10.2-3.7,15.1-8.8,17.1-18.1c3.5-16-10-25.5-28.3-35.2l-53.4-24.6
		c-28.1-12.9-44-25.9-44-39.8c0-3.8,2.8-11.1,2.8-11.1c-1.2,0.8-2.4,1.8-3.6,3c-6.6,6.1-28.9,29.4-21.8,64.4
		C96.2,190.1,102.4,183,107.9,179.7z"/>
	<path class="st0" d="M499.1,232.1c5.3,0.4,8.4,0.5,9.5,0.5c4.5,0,6.8-2.4,6.8-7.2c0-4.5-3.3-6.8-10-6.8c-2.5-11-4.5-21.8-6.2-32.4
		c-7.8-0.3-15.2-1.7-22.2-4.1c-0.9-0.3-1.5-0.4-1.9-0.5c-2.8,0-4.1,1.2-3.8,3.5l2,15.6c0,0.3,1,4.4,3.1,12.4c2,8,3.3,12.6,3.9,13.9
		c0.6,1.2,2.5,2.3,5.9,3.2C489.5,231.1,493.8,231.7,499.1,232.1z"/>
	<path class="st0" d="M979,257.7c1.1,0,2.3-0.1,3.4-0.2l11.6,0c5.5,0,8.2-2.3,8.2-6.8c0-3.9-1.9-6.1-5.7-6.8c-1.7-0.2-2.7-0.5-3.2-1
		c-0.4-0.5-2.2-6.8-5.3-19.1c-3.1-12.2-5.9-24.8-8.3-37.7L993,143c2.1-6.7,3.2-11.4,3.2-14.1c0-2.6-1.2-3.9-3.6-3.9l-8.1,2
		c-5.5,1.3-10,1.9-13.4,1.9c-1.2-6.7-1.8-12-1.8-15.8l26.5,0c1.1,0,2.3-0.7,3.4-2c1.1-1.3,1.6-3,1.7-5c0-1.5-0.6-3.2-1.7-4.9
		c-1.1-1.7-3.1-2.6-5.8-2.6c-1.1,0-2.4,0.1-4.1,0.4l-0.5-0.5c0.3-0.2,2-0.7,4.8-1.5c2.9-0.9,4.3-2,4.3-3.4c0-1.4-1-5.5-2.9-12.1
		c-1.9-6.6-3.2-10.9-4-12.8c-0.7-1.9-1.9-2.9-3.4-2.9l-14.9,4.8c-1.6,0.6-2.4,1.7-2.4,3.5l2.8,8.7c1.8,6.5,3.1,12,3.8,16.6l-9.1,0
		c-1.4-14-2.3-25.1-2.8-33.3c-7.3,0.6-16.8-0.9-28.5-4.4c-0.3-0.1-0.6-0.2-0.8-0.2c-0.8,0-1.6,0.5-2.2,1.5c-0.6,1-0.9,2-0.6,3
		l2.6,33.3c-9.4,0-20.6,1.2-33.6,3.6l0-4c0-1.8-1.7-2.7-5.1-2.7c-0.6,0-3.4,1.1-8.6,3.3c-5.2,2.2-11.3,3.3-18.3,3.3l-0.1,112.7
		l-15.2,7.2l0.1-89.8c0.1-0.1,1.7-0.1,4.8,0.1c3.1,0.1,5.2-0.5,6.3-1.8c1.1-1.3,1.6-3,1.6-4.9c0-5.4-4.2-7.9-12.6-7.2l0.1-54.8
		c0-1.6-1.3-2.5-3.9-2.4l-7.9,3.3c-2.8,1.1-6,2-9.7,2.7c-3.7,0.7-7.5,1.1-11.4,1.2l-0.1,50.9c-6-0.1-9.5,0.6-10.6,1.9
		c-1.1,1.4-1.7,3-1.7,4.8c0,1.1,0.5,2.7,1.5,4.8c1,2.1,4.9,2.9,11.6,2.3l-0.1,105.2l-13.7,6.8c-0.6,0.3-1.1,0.7-1.5,1.1l0.1-49.6
		c0-10.9-3.3-18.7-9.9-23.6c-6.6-4.9-17.4-7.3-32.4-7.3c-22.5,0-42,4.1-58.5,12.2l4.8-20.1l96,0.1c1.7,0,3.3-0.9,4.8-2.6
		c1.5-1.7,2.2-3.7,2.2-5.8c0-4.8-2.1-7.7-6.2-8.6l-30.2,0c19.1-12.9,31.6-34.6,31.6-59.3c0-39.6-32-71.7-71.6-71.7
		c-33.1,0-60.9,22.3-69.2,52.8c-0.9-11.5-6.7-17.2-17.4-17.2c-8.1,0-17.4,4.5-28,13.7l0-13.8c0-2.3-1.4-3.4-4.3-3.4l-14.9,4.7
		c-5.5,1.7-12.2,2.6-20.1,3l-0.1,70.3c-1-1.8-2.7-2.6-5.1-2.6l-88.9-0.1c8.5-33.3,12.7-51.1,12.7-53.2c0-2.2-0.9-3.3-2.8-3.3
		c-0.5,0-1.1,0.1-1.7,0.3c-9.1,3.9-20.1,6.1-33,6.5c-7.6,31.7-11.8,48.3-12.7,49.8l-57.1-0.1c-1.9,0-3.7,0.7-5.2,2.1
		c-1.5,1.4-2.3,3.1-2.3,5.3c0,1.9,0.5,3.5,1.6,4.8c1.1,1.3,2.2,2,3.5,2l56.2,0.1l-14.9,48.5c-5.8,19-14.1,40.5-24.8,64.3l-13.1-0.2
		c-1.9-0.1-3.7,0.7-5.4,2.4c-1.7,1.7-2.5,3.4-2.5,5.2c0,1.2,0.6,2.5,1.7,4c1.2,1.5,2.4,2.2,3.8,2.2l35.7,0c2,0,5.2-1.3,9.6-3.9
		c4.3-2.6,7.6-6.7,9.9-12.4c2.3-5.7,6.2-15.8,11.8-30.4c5.6-14.6,10.9-30.5,16-47.9l9.4-31.9l1.9,0l7.8,29.3l23.4,67.7
		c1.7,4.8,5,10.9,9.9,18.2c4.9,7.3,10.2,11,15.8,11l34.3,0c1.9,0,3.4-0.3,4.5-1l0,24.1c0,1.6,0.9,2.5,2.6,2.5l33.4,0
		c2.2,0,3.2-1,3.2-3l0-19.9c15.5-0.1,26.9-2.6,34.4-7.2c7.5-4.7,11.2-10.8,11.2-18.4l0-14c4.4,0.3,9.3-0.2,14.5-1.3
		c5.3-1.1,8.9-3.3,10.9-6.4c2-3.2,3.7-7.2,5-12.2c1.4-5,2.4-8.2,3.2-9.9c2.4-1,4.4-1.6,5.9-1.6c-4.5,25.4-9.9,47.5-16.4,66.5
		c-2.8-0.1-5.5-0.1-8.1-0.1c-2.6,0-4.7,0.9-6.1,2.6c-1.4,1.6-2.2,3.7-2.2,6.1c0,2.5,0.9,4.5,2.6,5.9c1.7,1.4,2.8,2.1,3.1,2.1
		l14.5,0.2c8.3,0,13.9-1.5,16.7-4.5c2.8-3,5.6-10.2,8.5-21.6c2.9-11.4,7.7-32.5,14.4-63.5l6.9,0c-0.3,4.8-2,16.3-5.2,34.5
		c-3.2,18.2-6.2,32.8-9,43.7c-1-0.3-2-0.4-2.9-0.4c-2.4,0-4.6,0.7-6.6,2.2c-2,1.4-2.9,3.5-3,6.1c0,2.3,0.9,4.3,2.6,6
		c1.7,1.7,2.9,2.5,3.5,2.5c11.2,0,18.2-0.3,21-0.9c2.8-0.6,5.1-2.2,6.9-4.6c1.8-2.5,4.6-12.9,8.2-31.3c3.6-18.4,6.1-34.6,7.5-48.7
		h0.3l-0.1,74.3c-8.8-0.3-13.2,2.6-13.2,8.5c0,2.3,0.8,4.3,2.5,5.9c1.6,1.6,3,2.4,4,2.4l18.1,0.4c20.1,0,30.2-6.2,30.3-18.6l0-8.6
		c1.1,1.1,2.8,1.7,5.1,1.7c0.6,0,1.3-0.1,1.9-0.2l55.5-27.1v9.6c0,2.2-2.4,3.4-7.2,3.6c-4.8,0.2-7.2,2.6-7.2,7
		c0,1.3,0.5,2.7,1.4,4.4c0.9,1.7,2.1,2.5,3.4,2.4l20.7,0c6.1,0,11.1-1.6,15-4.8c3.9-3.2,5.9-6.7,5.9-10.5l0.1-97.6
		c2.3-1.1,4-1.6,5.2-1.6c1.1,0,2.1,0.4,3.1,1.2c1,0.8,1.5,1.7,1.5,2.7l-0.1,61.8l-3.4,0c-0.7,0-1.5,0.8-2.7,2.3
		c-1.1,1.6-1.7,3.3-1.7,5.3c0,1.3,0.4,2.7,1.3,4.2c0.9,1.5,2.2,2.3,3.9,2.3l15.8,0c4.2,0,6.7-0.5,7.4-1.5l0.4,0.5
		c-4.6,8.8-7.6,13.9-8.8,15.3c-1.3,1.4-3.8,2.1-7.5,2.1c-5,0-8.3,0.5-9.9,1.4c-1.6,0.9-2.4,2.5-2.4,4.7c0,2.5,0.7,4.4,2.1,5.6
		c1.4,1.2,2.6,1.8,3.5,1.8l32.8,0c6.2,0,11.6-5.2,16.2-15.7C961.2,251,968.1,257.7,979,257.7z M579.1,244.4l-14.3,0.2
		c-17-39.6-30.5-77.3-40.5-112.9l54,0c1.5,0,3-0.6,4.4-1.9c0.6-0.5,1-1,1.3-1.7l-0.1,117.4C582.6,244.7,581,244.4,579.1,244.4z
		 M623.2,71.4c3.1-2.2,5.3-3.3,6.6-3.3c1.4,0,2.1,1.1,2.1,3.3l-0.1,63.5c0,2.2-1,4-2.9,5.3c-2,1.4-3.9,2.1-5.8,2.1L623.2,71.4z
		 M632.8,238.2c0,1.8-0.9,3.7-2.7,5.9c-1.8,2.2-4.1,3.5-7.1,4.1l0.1-91c6.5,0,9.8,2,9.8,5.9L632.8,238.2z M737.8,36.6
		c24.9,0,45.1,20.3,45.1,45.2c0,24.9-20.2,45.1-45.2,45.1c-24.9,0-45.1-20.3-45.1-45.2C692.7,56.8,712.9,36.6,737.8,36.6z
		 M674.1,141c-5,0-7.6,2.9-7.6,8.6c0,2.4,0.9,4.5,2.8,6.3c1.9,1.8,3.7,2.7,5.5,2.7l6.4-0.3c-1,4.9-5.1,19.4-12,43.5l-0.5,0l0.1-36.6
		c0-6.7-3.6-11.9-10.7-15.7c7.1-3.8,10.7-8.3,10.7-13.4l0-35.2c4.6,16.5,15,30.7,28.8,40.1L674.1,141z M938.1,208.7h-0.4l0.1-66.8
		c0-3.2-1.7-6.5-5.2-9.9c-3.5-3.4-7.8-5.1-12.9-5.1c-4.5,0-10.4,1.7-18,5.2l0-15.7c8.5-2.1,17.5-3.2,27.1-3.2c2.5,0,5.1,0.1,7.8,0.2
		l5.2,43l5.2,30.5L938.1,208.7z"/>
	<path class="st0" d="M709.4,85.9c3.8-1.1,7.3,1.8,7.3,1.8c0.6,2,2.3,6.3,2.3,6.3l-3.1,0c0.3,0.8,4.3,1.4,4.3,1.4l-1.3,1.5l-4.4,0.7
		c0.2,0.7,3.2,1.2,3.2,1.2s-2.9,2.9-2.7,8.7c0.2,5.9-2.5,7.6-2.5,7.6s5.9-1.6,7.5-5.7c1.6-4.1,2.4-4,3.1-5.1c0.7-1.2,4-1.9,4-1.9
		l0.5,0.5c-0.5,0.7-0.4,3.8-0.4,3.8l1.3-3.5l3.3,1.4l0.8-3.5c0.9,0.8,0.9,4.1,0.9,4.1l3,0.7c-0.4,16.7,11.6,15,11.6,15
		c-5.3-3.2-4.5-7.7-4.5-9.2c0-1.5,2.4-6.2,2.4-6.2c0.8-0.1,3.7-0.9,3.7-0.9c1.8,0.2,3.1,4.3,3.1,4.3c0.9-3.2-1.7-4.9-1.7-4.9
		l1.2-0.9c-0.6-0.8-1.2-3.1-1.2-3.1l2.4,2.5l1.8-1.3c11.5,12.8,19.3,2.6,19.3,2.6c-6.5,2.7-10.7-3.8-11.2-5.2
		c-0.5-1.4-1.8-4.5-1.8-4.5l0.8-1.5c3.5-0.4,5.2-2.4,5.2-2.4c-0.8,0.6-4.5,0.7-4.5,0.7c0.9-1.2,1.6-5.7,1.6-5.7
		c15.8,0.5,14.3-11.6,14.3-11.6c-1,2.1-2.9,3.8-6.3,4.6c-3.5,0.8-8.2-1.9-8.2-1.9l-1.1-2.9l4.9-1.5c-1.7-1.2-5.2,0-5.2,0l-1.1-2.1
		C759.8,71,757,70,757,70l4.3-1.7l-1.5-2.1c3.5-2.8,6.1-7.6,6.1-7.6c2.4-7.5-2.9-10.9-2.9-10.9c2.1,6-3.2,9.8-4.7,10.2
		c-1.5,0.5-5.6,2.2-5.6,2.2c-0.8-0.4-2.2-1.2-2.2-1.2c-0.3-4.4-2.4-4.7-2.4-4.7c1.2,2.1,0.7,4.3,0.7,4.3c-1.2-1.2-6.4-1.9-6.4-1.9
		c1.8-19-11.7-17.4-11.7-17.4c7.6,4.5,4.5,11.9,3.3,13.6c-1.2,1.7-1.7,5.6-1.7,5.6l-0.9,0.1l-0.2-2.7l-1.4,3.4l-2.5-2.9
		c0.5,0.5,1,3.3,1,3.3c0.8,0.5,3,4.4,3,4.4l-4.1-3.2l-2.4,1.6c0,0-4.3-6.5-11-8c-6.8-1.5-9.8,3.6-9.8,3.6c7.7-2.1,10.8,4.7,11.1,5.5
		c0.3,0.8,1.5,4.2,1.5,4.2c-2-0.2-4.2,0.7-4.2,0.7c6.2,1.2,6.1,2.2,6.1,2.2l-0.7,1.7c3.2,1.4,3.3,3.7,3.3,3.7c-0.6-0.9-4-2.2-4-2.2
		l-0.4,1.1c-0.7,0.6-4.6-0.7-4.6-0.7c0.3,0.9,4.3,2.2,4.3,2.2l-0.5,2.1c-7.5-0.9-9,2.4-12.7,4.5c-3.7,2-6.7,1.1-6.7,1.1
		C697.4,86,705.6,86.9,709.4,85.9z"/>
	<path class="st0" d="M1117.8,151.9c2.1,0,3.2-1,3.2-3c0-0.7-0.3-1.5-0.8-2.1c-0.5-0.7-1.2-1-1.9-1h-22.6v-20.1h11.8
		c2.1,0,3.8-0.7,4.9-2.1c1.2-1.4,1.7-3.3,1.7-5.5v-13.1c0-7.6-2.9-11.4-8.6-11.4h-7.6c-0.6,0-1.2-0.2-1.7-0.7
		c-0.5-0.5-0.8-1-0.9-1.7v-12h18.3c2.1,0,3.2-1,3.2-3c0-1.6-0.9-2.6-2.6-3.1h-74.4c-2.3,0-3.4,1-3.4,2.9c0,0.8,0.2,1.5,0.7,2.2
		c0.5,0.7,1.1,1,1.8,1h18.7V91c0,0.7-0.3,1.3-1,1.8c-0.7,0.5-1.5,0.7-2.4,0.7h-6.7c-5.8,0-8.8,3.5-8.8,10.4V118
		c0,5.1,2.2,7.7,6.7,7.7h12v20.1h-21.6c-2,0-3,1.1-3,3.3c0,0.6,0.2,1.2,0.6,1.8c0.4,0.7,0.9,1,1.6,1H1117.8z M1056.2,119.5
		c-1.6,0-2.4-0.9-2.4-2.6v-14.4c0-1.9,0.9-2.9,2.8-2.9h10.3c1.4,0,2.7-0.6,4-1.7c1.2-1.1,1.9-2.2,1.9-3.4V79.2h7.5v15
		c0,1.6,0.5,2.8,1.5,3.9c1,1,2.4,1.5,4.1,1.5h10.2c0.8,0,1.5,0.3,2.1,0.8c0.6,0.5,0.9,1.1,0.9,1.8V117c0,1.7-0.8,2.6-2.3,2.6h-9.4
		c-4.5,0-6.8,2.3-6.8,7v19.2h-8.1v-19.2c0-1.7-0.7-3.3-2-4.8c-1.3-1.5-2.9-2.2-4.8-2.2H1056.2z"/>
	<path class="st0" d="M1118.1,208c-0.9,0-2-0.1-3-0.1v-36.3c0-0.1-0.2-0.3-0.6-0.7c-0.4-0.3-0.8-0.5-1.3-0.5c-0.3,0-0.6,0.1-0.9,0.2
		c-3.5,2.1-7.6,3.2-12.3,3.2V208h-3.6v-31.5c0-1.3-0.6-1.9-1.7-1.9c-0.3,0-0.6,0.1-0.9,0.3c-3.8,2-7.7,2.9-11.6,2.7V208h-3.6v-35.2
		c0-1.3-0.5-2-1.4-2c-0.2,0-0.4,0-0.6,0.1c-4,2.1-8.3,3.1-13,3v34h-4.1c-0.3,0-0.6,0.3-1,1c-0.4,0.6-0.6,1.3-0.6,2
		c0,0.8,0.3,1.4,0.8,2c0.5,0.5,1.2,0.8,2.1,0.9c0.9,0,1.8,0.1,2.8,0.1l-0.4,7.8l-1.6,18.6l-1.5,10.9c-3.1-0.3-4.6,0.6-4.6,2.8
		c0,2.1,1.2,3.2,3.5,3.2c5.2,0,8.6-0.1,10.1-0.4c1.5-0.2,3-1.2,4.5-2.8c1.5-1.6,2.3-3.5,2.3-5.5l1.5-18.5l1.1-16.1h3.6v37.7
		c0,0.7,0.4,1.2,1.3,1.4h11.6c0.4,0,0.8-0.4,1.3-1.1v-38h3.6v40.3c0,0.5,0.3,1.1,0.9,1.7c0.6,0.6,1.5,0.9,2.9,0.8h8.9
		c1.6,0,2.4-0.9,2.4-2.8v-40c1.7,0,3.1-0.1,4.1-0.3c1-0.3,1.5-1.1,1.5-2.7c0-0.7-0.2-1.4-0.6-2.1C1119.7,208.3,1119,208,1118.1,208z
		"/>
	<path class="st0" d="M1057.3,221.4c0-0.4-0.2-0.9-0.7-1.3c-0.5-0.4-1-0.6-1.5-0.6c-0.2,0-1.4,0.4-3.8,1.1c-2.4,0.7-5,1-8.1,0.9
		c-0.5,5-2.1,14.9-4.9,29.7c-2.4,0-3.5,1-3.5,2.9c0,1.3,0.7,2.3,2,3.1h8c1.6,0,3-0.3,4.2-0.8c1.2-0.5,2.1-1.3,2.7-2.3
		c0.6-1,1.1-2.7,1.5-5.1c0.4-2.4,1.2-7.5,2.3-15.3C1056.7,225.9,1057.3,221.8,1057.3,221.4z"/>
	<path class="st0" d="M1040.5,214.3c1.5,1.2,3.7,1.8,6.5,1.8l4.2-0.1c3.5,0,5.2-1.2,5.2-3.5c0-0.6-0.2-1.2-0.7-1.8
		c-0.4-0.7-1.2-1-2.1-1c-0.3,0-0.7,0-1.1,0.1c-1.2-3.4-2.5-7.6-3.8-12.6c-2,0.2-4.7-0.1-8.3-0.7l-4.7-0.9c-0.3,0-0.6,0.2-0.9,0.5
		c-0.3,0.3-0.4,0.6-0.4,0.8c0,0.7,0.6,3.6,1.9,8.4C1037.6,210.1,1039,213.1,1040.5,214.3z"/>
	<path class="st0" d="M1040.8,190.4c1.8,1,4,1.5,6.4,1.5h5.5c2.3,0,3.5-1,3.5-2.9c0-2.3-1.3-3.4-3.8-3.2c-0.8-2.2-2.1-6.5-3.7-12.8
		c-3.1,0.1-6-0.1-8.4-0.8c-2.5-0.7-4.1-1-4.7-1.1c-0.9,0.4-1.3,1.1-1.2,1.9l2.3,9.8C1037.5,186.8,1038.9,189.3,1040.8,190.4z"/>
	<path class="st0" d="M433.7,323.7c-1.3-0.7-5.2-1.9-7-2.2c-2.4-0.3-4.8-0.8-7.2-1c-2.5-0.2-4.9-0.3-7.2-0.5
		c-2.4-0.1-4.5-0.4-6.3-0.8c-1.8-0.4-3.3-1-4.5-1.7c-1.1-0.8-1.7-1.9-1.7-3.4c0-1.1,0.4-2,1.2-2.7c0.8-0.7,1.8-1.3,3.1-1.8
		c1.2-0.4,2.6-0.8,4.1-1c1.5-0.2,3-0.3,4.4-0.3c1.9,0,3.8,0.2,5.6,0.5c1.9,0.4,3.6,0.8,5.2,1.4c1.6,0.6,3,1.2,4.2,2
		c1.2,0.7,2.1,1.5,2.6,2.2c0.4,0.6,0.6,1.3,0.8,2.2l1,0.4l9.6-13.4l-1.3-0.9c-0.4,0.4-1.2,0.6-2.2,0.6c-1,0-2.1-0.3-3.6-0.9
		c-1.4-0.6-3.2-1.2-5.3-1.8c-2.1-0.7-4.5-1.3-7.4-1.8c-2.8-0.6-6.2-0.9-10.1-0.9c-4.5,0-8.5,0.5-11.8,1.6c-3.4,1-6.1,2.4-8.3,4
		c-2.2,1.7-3.8,3.6-4.9,5.7c-1.1,2.2-1.6,4.4-1.6,6.6c0,3.3,0.6,6,1.9,8c1.3,2,3.3,4.1,5.3,5.4c1.9,1.3,4.2,2,8.1,3.1
		c2.4,0.6,5,0.8,7.4,1c2.4,0.2,4.7,0.3,6.9,0.4c2.3,0.1,4.3,0.3,6,0.6c1.8,0.3,3.2,0.8,4.3,1.5c1.1,0.7,1.6,1.7,1.6,3.1
		c0,1.4-0.6,2.5-1.8,3.4c-1.2,0.9-2.6,1.5-4.2,2c-1.6,0.5-3.2,0.8-4.9,1c-1.7,0.2-3,0.2-4.1,0.2c-1.4,0-3-0.2-4.8-0.5
		c-1.8-0.3-3.5-0.8-5.2-1.3c-1.6-0.6-3.1-1.2-4.4-1.9c-1.3-0.7-2.1-1.4-2.6-2.1c-0.2-0.4-0.4-0.9-0.4-1.5l-0.9-0.5l-9,12.8l1.5,0.9
		c0.4-0.6,0.9-0.9,1.4-0.9c0.8,0,1.8,0.3,2.8,0.8c1.1,0.5,2.6,1.2,4.4,1.8c1.9,0.7,4.2,1.3,7,1.7c2.8,0.5,6.3,0.7,10.5,0.7
		c3,0,6.2-0.2,9.7-0.7c3.5-0.5,6.7-1.4,9.7-2.8c3-1.4,5.5-3.2,7.5-5.6c2-2.4,3-5.4,3-9.2c0-3.2-0.7-5.8-1.9-7.9
		C438.7,326.9,437.1,325.6,433.7,323.7z"/>
	<path class="st0" d="M530.4,309.8c1.8,0,2.7,0.5,2.7,1.6v24.8c0,3.5-1.3,6.2-3.8,8.3c-2.6,2.1-6.5,3.1-11.7,3.1
		c-5.3,0-9.2-1-11.7-3.1c-2.6-2.1-3.8-4.9-3.8-8.3v-24.8c0-1.1,0.8-1.6,2.4-1.6v-1.9h-20.3v1.9c1.2,0,2.1,0.1,2.5,0.4
		c0.4,0.2,0.7,0.7,0.7,1.2v27.3c0,2.2,1.1,4.2,2.3,6.6c1.2,2.4,3,4.5,5.4,6.3c2.4,1.8,5.5,3.3,9.3,4.3c3.8,1,8.2,1.6,13.3,1.6
		c5.1,0,9.5-0.5,13.3-1.6c3.8-1,6.9-2.5,9.3-4.3c2.4-1.8,4.2-4,5.4-6.3c1.2-2.4,1.1-4.4,1.1-6.6v-27.3c0-1.1,0.8-1.6,2.4-1.6v-1.9
		h-18.6V309.8z"/>
	<path class="st0" d="M635.2,309.8c1.5,0,2.2,0.5,2.2,1.6v29.3l-26.3-27.4c-1.6-1.6-2.4-2.6-2.4-2.9c0-0.3,0.3-0.5,0.8-0.5v-1.9
		h-20.9v1.9c1.3,0,2,0.5,2,1.6v40.4c0,1.1-0.7,1.6-2,1.6v1.9h18.2v-1.9c-1.5,0-2.3-0.5-2.3-1.6v-31.4l27.2,28.5
		c0.9,0.9,1.7,1.8,2.4,2.5c0.7,0.7,1,1.2,1,1.5c0,0.4-0.3,0.5-0.8,0.5v1.9h18.2v-1.9c-1.3,0-2-0.5-2-1.6v-40.4c0-1.1,0.7-1.6,2-1.6
		v-1.9h-17.3V309.8z"/>
	<path class="st0" d="M794.7,326.6c-0.5-0.3-0.8-1.1-1-2.3h-2v13.8h2c0.1-1.4,0.5-2.4,1-2.8c0.5-0.4,1.3-0.6,2.3-0.6l12.1,0v7.8
		c-0.9,0.4-4.6,1.4-7.7,2c-3,0.6-6.4,0.9-10.2,0.9c-2.5,0-4.9-0.3-7.3-1c-2.4-0.7-4.6-1.8-6.5-3.2c-1.9-1.4-3.4-3.3-4.6-5.6
		c-1.2-2.3-1.7-5.1-1.7-8.3c0-3.3,0.6-6.1,1.7-8.4c1.2-2.3,2.7-4.2,4.6-5.6c1.9-1.4,4.1-2.5,6.5-3.2c2.4-0.7,4.9-1,7.3-1
		c2,0,4.1,0.1,6.3,0.4c2.2,0.3,4.3,0.7,6.2,1.2c1.9,0.6,3.5,1.2,4.7,2c1.2,0.8,1.8,1.7,1.8,2.7c0,0.4-0.1,0.8-0.2,1.2l3.2,1.5
		l7.4-16.2l-1.3-0.8c-0.4,0.2-0.7,0.5-1.1,0.8c-0.4,0.3-0.9,0.4-1.5,0.4c-0.4,0-1.3-0.2-2.8-0.7c-1.5-0.5-3.4-1-5.6-1.5
		c-2.3-0.5-4.9-1-7.8-1.5c-2.9-0.4-6-0.7-9.2-0.7c-5.1,0-9.8,0.7-14,2c-4.2,1.3-7.8,3.3-10.8,5.8c-3,2.5-5.3,5.6-7,9.1
		c-1.6,3.6-2.5,7.6-2.5,12.1c0,4.5,0.8,8.6,2.5,12.1c1.6,3.6,4,6.6,7,9.1c3,2.5,6.6,4.4,10.8,5.6c4.2,1.3,8.9,1.9,14,1.9
		c2.6,0,5.3-0.1,8.1-0.2c2.7-0.1,5.5-0.5,8.2-1.1c2.7-0.6,5.4-1.5,8.1-2.5c2.7-1.1,5.2-2.4,7.6-4.1V346c-0.6-0.3-1.1-0.5-1.5-0.8
		c-0.4-0.2-0.7-0.7-0.7-1.4v-12.2c0-0.9,0.2-1.5,0.5-1.8c0.4-0.3,1.3-0.5,2.7-0.8v-1.9H797C796,327.1,795.2,326.9,794.7,326.6z"/>
	<path class="st0" d="M918.8,351.4L901,314.7c-0.4-0.8-0.7-1.5-1-2.1c-0.3-0.6-0.5-1.1-0.5-1.6c0-0.5,0.1-0.8,0.4-0.9
		c0.3-0.1,0.5-0.2,0.7-0.3v-1.9H884v1.9c0.2,0.1,0.4,0.3,0.6,0.4c0.2,0.1,0.3,0.4,0.3,0.8c0,0.6-0.1,1.2-0.4,1.8
		c-0.3,0.6-0.6,1.4-1,2.4l-16.3,35.1c-0.3,0.6-0.7,1.2-1.3,1.9c-0.5,0.7-1.3,1.1-2.1,1.2v1.9h18.6v-1.9c-0.7,0-1.2-0.1-1.5-0.2
		c-0.4-0.1-0.5-0.5-0.5-1.1c0-0.4,0.1-0.8,0.3-1.2c0.2-0.5,0.4-1,0.7-1.6l3.1-5.8h16.8l3,6.2c0.2,0.6,0.4,1,0.5,1.4
		c0.1,0.4,0.2,0.8,0.2,1.2c0,0.6-0.2,1-0.6,1.2c-0.4,0.2-0.8,0.3-1.2,0.3v1.6h18.3v-1.9c-0.5-0.2-1-0.4-1.4-0.7
		C919.6,352.5,919.2,352,918.8,351.4z M887.6,335.5l4.8-10.2l4.9,10.2L887.6,335.5z"/>
	<path class="st0" d="M1007.2,309.8c0.6,0,0.9,0.3,0.9,1c0,0.2-0.2,0.6-0.4,1.1c-0.3,0.5-0.7,1.2-1.2,2.1L993,338.2l-13.4-24.3
		c-0.5-0.9-0.9-1.5-1.1-2c-0.3-0.5-0.4-0.8-0.4-1.1c0-0.6,0.4-1,1.1-1v-1.9h-19.6v1.9c0.5,0,0.9,0.1,1,0.3c0.2,0.2,0.3,0.8,0.3,1.8
		v39.5c0,0.8-0.1,1.3-0.4,1.5c-0.3,0.2-0.6,0.4-0.9,0.4v1.9h16.8v-1.9c-1.3,0-1.9-0.5-1.9-1.6v-30.3h0.1l17.6,33.9h0.9l18.6-33.9
		h0.2v30.3c0.2,1.1-0.4,1.6-2,1.6v1.9h17v-1.9c-0.4,0-0.7-0.1-1-0.4c-0.3-0.2-0.5-0.7-0.5-1.2v-40.6c0-0.6,0.2-1,0.5-1.1
		c0.3-0.2,0.7-0.3,1-0.3v-1.9h-19.8V309.8z"/>
	<path class="st0" d="M1114.9,346.8c-0.6,0.4-1.3,0.6-2.2,0.6h-28.1v-12.7h16c1.5,0,2.6,0.1,3.4,0.3c0.8,0.2,1.1,0.7,0.9,1.5h2.2
		v-11.4h-2c0,0.8-0.3,1.3-0.9,1.5c-0.6,0.2-1.5,0.3-2.7,0.3h-16.9v-10.8h26.7c2.3,0,3.4,0.7,3.4,2h2v-12h-2c0,1.3-1.1,1.9-3.4,1.9
		h-42v1.9c0.4,0,0.7,0.1,1.1,0.4c0.4,0.2,0.5,0.7,0.5,1.2v40.4c0,0.6-0.2,1-0.5,1.2c-0.4,0.3-0.7,0.4-1.1,0.4v1.9h43.3
		c0.9,0,1.6,0,2.2,0.1c0.6,0.1,0.9,0.4,0.9,1.1h2v-11.3h-2C1115.8,345.9,1115.5,346.4,1114.9,346.8z"/>
</g>
</svg>
