<?xml version="1.0" encoding="utf-8"?><svg version="1.1" id="圖層_1" xmlns="http://www.w3.org/2000/svg" xmlns:xlink="http://www.w3.org/1999/xlink" x="0px" y="0px" viewBox="0 0 240 80" style="enable-background:new 0 0 240 80;" xml:space="preserve"><style type="text/css">.st0{fill:#FFFFFF;}</style><title>logo</title><path class="st0" d="M179.1,1.6c-2.7,3-5,6.5-6.7,10.2l6.9-0.2l0.2,7.1c0.3,0,0.5,0.2,0.7,0.4c0.4,0,0.7-1,0.5,0.1c0.3,0,0.3-0.4,0.4-0.7c0.4,0.6,2.7,1.5,2.3,0.9c0.6,0.2,2-1.4,2.8-1.9c0.3-0.1,0.2,1.1,0.4,0.9c0.2-0.2,0.4-0.3,0.6-0.5c-0.3-6.6,12-16,19.4-3.7c0.3,0.6,0.6,0.3,0.8,0.2c11.3-9.6,21.5,7.4,14.8,12.8c-0.8,0.6,0.4,1.6,0.5,1.7c0.3,0,2.7,2.1,2.9,1.8c0.6,1.2,1.7,0.1,2.7,0.2c-1.4,1.8,2.2,2,2.6,3.4c-3-1.7-7.1-2.6-9.9-4.4c1.4,0.9-16.6,9.4-20,8.7c-1.6-0.3-3.7-2.8-4.8-4c-4.2-4.6-8.2-11-9.3-11.8c-0.2-0.2-0.5-0.3-0.8-0.4c-0.3-0.1-0.6,0-0.9,0.1c0.1-0.8-0.2-1.5-0.6-2.1c-0.3,0.1-0.4,0.5-0.2,0.7c0,0,0,0.1,0,0.1c-0.4,0.6-1.1-0.5-0.9-1c-1.3,0-3.2-0.8-3.6-0.2c-0.1-0.2-0.3-0.3-0.5-0.4l0.5,22.9l5.8-0.1l0.7,8.8h-2.1c5.6,2.8,11.7,4.4,17.9,4.6c8.6,0.1,16.9-2.5,23.9-7.4c10.7-7.3,9-10.9,9.1-12.7c2.6-1.1,7.6-6.7,2.3-18.5c-2.7-6-6-11.8-9.8-17.2h-47.4C180,0.5,179.6,1,179.1,1.6z M215.6,46.2c-1.3,0.7-2.8,1-4.2,0.7c-0.7-1.3-0.9-2.8-0.6-4.2c0.3-1.3,3.1-0.8,2.6,1.6l0,0C215.4,43.1,216.7,45.5,215.6,46.2L215.6,46.2z"/><path class="st0" d="M26.1,53.7c-9.7-0.9-12.4-4.4-12.7-8.2c-0.2-3.1,2.3-7.4,10.3-7.6c10.7-0.3,9.7,11.2,9.7,11.2c1.3,0.5,2.7,1,4.1,1.3c1.4-4,2.5-8.1,3.2-12.2c-2.2-3.1-5.1-5.7-8.5-7.4c-5.1-2.4-10.8-2.9-16.3-1.7C11.8,30,5.3,33,2.3,39.2c-3.8,7.6-2.8,15.4,2.1,20.5c3.2,3.3,9.8,6.5,17.3,7.1c3.2,0.3,5.1,0.5,5.7,0.7c1.6,0.5,2.5,1.2,2.7,2.4c0.4,2.3-1.3,3.8-5.1,4.4c-4.4,0.9-8.9-0.6-11.9-3.9c-2.3,1-4.1,2.9-5.2,5.1c3.7,4,10,5.3,18.7,3.8C34.5,78,40.2,73,40.3,67C40.5,59.5,35.3,54.5,26.1,53.7z"/><path class="st0" d="M56.2,41.9l2.2,17.8c0.2,1.3,0.2,2.6,0.1,3.9c-0.1,1.7-1.5,3-3.2,3.1c-1.2,0.2-2.1-0.6-2.6-2.1c-0.3-1.2-0.5-2.5-0.6-3.8l-2.3-18.1l-9.9,1.2l2.2,18c0.4,3.1,0.9,5.1,1.7,6.1c1.6,2.3,4.3,3.2,8,2.8c3-0.5,5.7-2.2,7.4-4.8l0.4,3.1l9.9-1.2l-3.4-27.2L56.2,41.9z"/><path class="st0" d="M93.6,41c-0.5-1.9-1.8-3.5-3.6-4.3c-1.8-0.7-3.7-0.9-5.6-0.5c-3,0.5-5.7,2.4-7.2,5L76.7,38l-9.9,1.6l4.4,27.1l9.9-1.6l-2.9-17.7c-0.2-1.3-0.3-2.6-0.2-3.9c0.1-1.7,1.4-3.1,3.1-3.3c1.2-0.2,2.1,0.5,2.6,2c0.3,1.2,0.6,2.5,0.8,3.8l2.9,18l9.9-1.6l-2.9-17.9C94.2,43.4,93.9,42.2,93.6,41z"/><path class="st0" d="M136,24.1c2.6,1.4,5.8,0.9,7.9-1.1c1.1-1,1.6-2.4,1.4-3.8c-0.2-1.4-1-2.6-2.3-3.3c-1.2-0.7-2.7-1-4.1-0.7c-1.4,0.2-2.8,0.8-3.8,1.8c-1.8,1.6-1.9,4.4-0.3,6.2C135.1,23.6,135.5,23.9,136,24.1z"/><path class="st0" d="M135.3,27.1l3.2,23.4l-9.3-24.9L115,30.9l9.6,25.8c-2.6,0.7-4.7,0.4-6.3-0.7c-1.4-1-2.9-3.3-4.5-6.9c-0.5-1.2-1.5-3.8-3.1-7.8c-2.3-6.1-3.2-10.2-2.7-12.2c0.8-3.3,3.2-6,6.5-7c1.2-0.5,2.5-0.7,3.8-0.5c1.2,0.4,2.4,1.1,3.2,2c1.9-0.8,3.4-2.5,3.8-4.6c-4.7-2.1-10-2.1-16,0.1c-7.9,3-12.7,7.9-14.5,14.8c-1.2,4.7-0.8,9.7,1,14.2c2.5,6.6,6.8,11,12.9,13.2c5.5,2,11.6,1.7,18.3-0.8c5.4-2,9.3-4.6,11.7-7.8l0.2,1.6l10.1-1.4l-3.7-27.2L135.3,27.1z"/><polygon class="st0" points="178.1,44.4 177.4,13.6 167.2,13.8 168.1,49.5 184.4,49.2 184,44.3 "/><path class="st0" d="M165,19.4c-0.7,0.1-1.2,0.3-1.6,0.4c-3.2,1-5,4.2-5.4,9.6l-2-6.3l-9.7,3l8.1,26.3l9.7-3L160.3,37c-0.6-1.9-0.8-4-0.4-6c0.5-2.3,1.6-3.8,3.6-4.4c1-0.2,2-0.2,3,0.2c0.2-1.6,0-3.3-0.4-4.9C165.8,21.1,165.4,20.2,165,19.4z"/></svg>